<svg width="33" height="22" viewBox="0 0 33 22" fill="none" xmlns="http://www.w3.org/2000/svg">
<path d="M0 1.73684C0 1.2762 0.217298 0.83443 0.604092 0.508709C0.990886 0.182988 1.51549 0 2.0625 0H30.9375C31.4845 0 32.0091 0.182988 32.3959 0.508709C32.7827 0.83443 33 1.2762 33 1.73684C33 2.19748 32.7827 2.63925 32.3959 2.96498C32.0091 3.2907 31.4845 3.47368 30.9375 3.47368H2.0625C1.51549 3.47368 0.990886 3.2907 0.604092 2.96498C0.217298 2.63925 0 2.19748 0 1.73684ZM0 11C0 10.5394 0.217298 10.0976 0.604092 9.77187C0.990886 9.44615 1.51549 9.26316 2.0625 9.26316H30.9375C31.4845 9.26316 32.0091 9.44615 32.3959 9.77187C32.7827 10.0976 33 10.5394 33 11C33 11.4606 32.7827 11.9024 32.3959 12.2281C32.0091 12.5539 31.4845 12.7368 30.9375 12.7368H2.0625C1.51549 12.7368 0.990886 12.5539 0.604092 12.2281C0.217298 11.9024 0 11.4606 0 11ZM0 20.2632C0 19.8025 0.217298 19.3607 0.604092 19.035C0.990886 18.7093 1.51549 18.5263 2.0625 18.5263H30.9375C31.4845 18.5263 32.0091 18.7093 32.3959 19.035C32.7827 19.3607 33 19.8025 33 20.2632C33 20.7238 32.7827 21.1656 32.3959 21.4913C32.0091 21.817 31.4845 22 30.9375 22H2.0625C1.51549 22 0.990886 21.817 0.604092 21.4913C0.217298 21.1656 0 20.7238 0 20.2632Z" fill="#0090E6"/>
</svg>
